<svg xmlns="http://www.w3.org/2000/svg" xmlns:xlink="http://www.w3.org/1999/xlink" viewBox="0 0 712.25 412.71"><defs><style>.cls-1{fill:url(#linear-gradient);}.cls-2{fill:url(#linear-gradient-2);}.cls-3{fill:none;stroke:#27175e;stroke-miterlimit:10;stroke-width:8px;opacity:0.71;}.cls-4{fill:url(#linear-gradient-3);}.cls-5{font-size:123.48px;fill:#e24dde;font-family:Rakkas-Regular, Rakkas;letter-spacing:0.05em;}.cls-6{opacity:0.6;}.cls-11,.cls-7{letter-spacing:0.05em;}.cls-7{fill:#000;}.cls-10,.cls-11,.cls-8,.cls-9{fill:#25cc80;opacity:0.62;}.cls-8{letter-spacing:-0.05em;}.cls-9{letter-spacing:0.05em;}.cls-10{letter-spacing:0.04em;}</style><linearGradient id="linear-gradient" x1="562.3" y1="514.13" x2="887.29" y2="511.05" gradientUnits="userSpaceOnUse"><stop offset="0" stop-color="#e24dde"/><stop offset="0.82" stop-color="#6923cc"/></linearGradient><linearGradient id="linear-gradient-2" x1="627.57" y1="517.31" x2="822.59" y2="510.49" gradientUnits="userSpaceOnUse"><stop offset="0" stop-color="#e24dde"/><stop offset="0.84" stop-color="#6923cc"/></linearGradient><linearGradient id="linear-gradient-3" x1="755.48" y1="525.97" x2="1352.6" y2="525.97" gradientUnits="userSpaceOnUse"><stop offset="0" stop-color="#e24dde"/><stop offset="1" stop-color="#6923cc"/></linearGradient></defs><title>The Vault logo</title><g id="Layer_2" data-name="Layer 2"><path class="cls-1" d="M760.61,407.1v14.15H710.82a18.45,18.45,0,0,0-14.64,7.22l-1.31,1.71a39.74,39.74,0,0,0-8.22,24.2V572.89a25.8,25.8,0,0,0,8.37,19l2.66,2.44a18.87,18.87,0,0,0,12.75,5h131.9v17.8h-131a24.33,24.33,0,0,1-17.2-7.12l-10.22-10.22a38.25,38.25,0,0,1-11.19-27v-121a32.34,32.34,0,0,1,6-18.78L689,418.53a27.27,27.27,0,0,1,22.19-11.43Z" transform="translate(-570.62 -308.05)"/><path class="cls-2" d="M757.53,430.33v15.52H711.31V575H840.5v19.63H717.24a14.31,14.31,0,0,1-10.13-4.19h0a44.15,44.15,0,0,1-12.92-31.2V445.79A16.37,16.37,0,0,1,699,434.2h0a15.57,15.57,0,0,1,11.28-4.57Z" transform="translate(-570.62 -308.05)"/><circle class="cls-3" cx="20.66" cy="205.42" r="16.66"/><circle class="cls-3" cx="204.15" cy="20.66" r="16.66"/><path class="cls-3" d="M760.61,414.86h96.57a16.19,16.19,0,0,1,16.19,16.19V593.72a16.19,16.19,0,0,1-16.19,16.19H842.33" transform="translate(-570.62 -308.05)"/></g><g id="Layer_1" data-name="Layer 1"><line class="cls-3" x1="65.48" y1="175.41" x2="116.04" y2="175.41"/><line class="cls-3" x1="116.04" y1="204.05" x2="36.03" y2="204.05"/><line class="cls-3" x1="116.04" y1="229.39" x2="46.31" y2="229.39"/><line class="cls-3" x1="172.65" y1="113.21" x2="172.65" y2="70.75"/><line class="cls-3" x1="178.01" y1="291.25" x2="178.01" y2="335.07"/><line class="cls-3" x1="204.15" y1="34.46" x2="204.15" y2="109.5"/><line class="cls-3" x1="240.44" y1="59.79" x2="240.44" y2="109.5"/><line class="cls-3" x1="234.39" y1="291.25" x2="234.39" y2="340.55"/><line class="cls-3" x1="205.17" y1="291.25" x2="205.17" y2="370.68"/><circle class="cls-3" cx="205.17" cy="388.39" r="20.32"/><path class="cls-3" d="M757.53,440.43h83a9.92,9.92,0,0,1,9.93,9.93v128a9.93,9.93,0,0,1-9.93,9.93h0" transform="translate(-570.62 -308.05)"/><path class="cls-4" d="M828.58,467.32v23.95l-4.82-.12-.25-6.18a179.12,179.12,0,0,0-21.11-13.46V545.6l9.75.13v4.32h-40v-4.32l9.75-.13V471.51A179.11,179.11,0,0,0,760.78,485l-.24,6.18-4.82.12V467.32Z" transform="translate(-570.62 -308.05)"/><path class="cls-4" d="M897.23,546.47v3.58H870.81v-3.58l4.57-.37V520q0-5.43-3-8.39a11.8,11.8,0,0,0-8.33-3.09l-4.08,4.07-.25,33.47,4.57.37v3.58H837.71v-3.58l4.57-.37-.61-74-4.7,1-1.23-3.58,22.84-6.92,1.73,3-.37,41.12,10-14.33q11.73,0,17.29,5.56t5.56,17.16v31Z" transform="translate(-570.62 -308.05)"/><path class="cls-4" d="M952.74,500.47q6.22,7.84,6.11,21.18l-34.08,1.11q.86,7.29,5.06,11.11t11.11,3.83q9.64,0,15.69-5.31l2.22,2a32.89,32.89,0,0,1-11.67,12.9,28.8,28.8,0,0,1-15.62,4.63q-11.23,0-17.84-7.47t-6.61-20.19A41.85,41.85,0,0,1,917.85,497a31.77,31.77,0,0,1,8.28-3.08,39.83,39.83,0,0,1,9.51-1.24Q946.5,492.63,952.74,500.47Zm-12.17,17.1q-.12-8.64-2.47-13.7t-6.66-6.05a23.28,23.28,0,0,0-5,8.95,37,37,0,0,0-1.92,11.79v.37Z" transform="translate(-570.62 -308.05)"/><path class="cls-4" d="M1075.79,467.32v4.32l-5.19.12-28.89,77.3-16.06,2.1-26.79-79.4-5.19-.12v-4.32h37.54v4.32l-7.29.12,16.43,63.6,14.69-63.6-7.28-.12v-4.32Z" transform="translate(-570.62 -308.05)"/><path class="cls-4" d="M1122.71,543.63l-18.15,8.52a11.78,11.78,0,0,1-4.57-6.42,54.73,54.73,0,0,1-9,4.44,22.3,22.3,0,0,1-7.84,1.73,10.6,10.6,0,0,1-8.28-3.58,13.17,13.17,0,0,1-3.21-9.14,28.84,28.84,0,0,1,.56-5.37,18.08,18.08,0,0,1,1.42-4.63l26.18-4.2.24-3.58q.26-5.55-2.34-8.7t-8.4-3.15a28.25,28.25,0,0,0-5.43.55,23.59,23.59,0,0,0-4.82,1.42l-2,4.2-3.33-1.23,5.68-17.78a45.79,45.79,0,0,1,18-4.08q8.76,0,14.32,4.63t5.56,14.51l-.12,2.47L1116,530.91l-.25,4.45a13,13,0,0,0,.38,3.51,9.84,9.84,0,0,0,1.23,2.66l3.83-1.48Zm-23.46-2.1-.12-2.59.12-2.72.37-7-9.51,2.22a15.25,15.25,0,0,0-.49,4.33q0,3.71,1.48,5.49a4.48,4.48,0,0,0,3.58,1.79A9.48,9.48,0,0,0,1099.25,541.53Z" transform="translate(-570.62 -308.05)"/><path class="cls-4" d="M1194.08,541.78l-17.16,9.75a13.19,13.19,0,0,1-5.8-5.74,20.47,20.47,0,0,1-1.86-9.32l-10.62,15.43q-11.61,0-17.16-5.62t-5.56-17.35v-30.5l-4.57-.37v-3.58h22V524q0,5.55,2.91,8.58a10.59,10.59,0,0,0,7.71,3.15l5.31-4.94V498.43l-4.44-.37v-3.58h21.85V529.3a30.46,30.46,0,0,0,.56,6.8,10.23,10.23,0,0,0,1.79,3.82l3.7-1.85Z" transform="translate(-570.62 -308.05)"/><path class="cls-4" d="M1201,546.47l4.57-.37-.62-74-4.69,1-1.24-3.58,22.85-6.92,1.72,3L1223,546.1l4.57.37v3.58H1201Z" transform="translate(-570.62 -308.05)"/><path class="cls-4" d="M1276.69,540.29l-15.06,10.87q-9.15,0-13.28-4.51t-4.14-14.51V499.3h-8.27v-3.95a67.84,67.84,0,0,0,11.3-8.09,109.19,109.19,0,0,0,11.18-11.05l4.07,1.23-.62,17h14.45v5.19l-14.69-.25v28.4c0,3.95.76,6.84,2.28,8.65a7.57,7.57,0,0,0,6.11,2.71l4.57-2.59Z" transform="translate(-570.62 -308.05)"/><text class="cls-5" transform="translate(184.86 242)"><tspan class="cls-6">The</tspan><tspan class="cls-7" x="210.78" y="0"> </tspan><tspan class="cls-8" x="237.95" y="0">V</tspan><tspan class="cls-9" x="314.38" y="0">a</tspan><tspan class="cls-10" x="373.41" y="0">u</tspan><tspan class="cls-11" x="442.81" y="0">lt</tspan></text></g></svg>